<svg xmlns="http://www.w3.org/2000/svg" xmlns:xlink="http://www.w3.org/1999/xlink" width="1000" zoomAndPan="magnify" viewBox="0 0 750 749.999995" height="1000" preserveAspectRatio="xMidYMid meet" version="1.0"><defs><g/><clipPath id="43b57d137d"><path d="M 17.792969 17.792969 L 731.472656 17.792969 L 731.472656 731.472656 L 17.792969 731.472656 Z M 17.792969 17.792969 " clip-rule="nonzero"/></clipPath><clipPath id="4685d9076d"><path d="M 374.632812 17.792969 L 424.871094 57.429688 L 484.902344 35.257812 L 520.433594 88.480469 L 584.375 85.941406 L 601.722656 147.539062 L 663.320312 164.886719 L 660.785156 228.832031 L 714.007812 264.363281 L 691.832031 324.390625 L 731.472656 374.632812 L 691.832031 424.871094 L 714.007812 484.902344 L 660.785156 520.433594 L 663.320312 584.375 L 601.722656 601.722656 L 584.375 663.320312 L 520.433594 660.785156 L 484.902344 714.007812 L 424.871094 691.832031 L 374.632812 731.472656 L 324.390625 691.832031 L 264.363281 714.007812 L 228.832031 660.785156 L 164.886719 663.320312 L 147.539062 601.722656 L 85.941406 584.375 L 88.480469 520.433594 L 35.257812 484.902344 L 57.429688 424.871094 L 17.792969 374.632812 L 57.429688 324.390625 L 35.257812 264.363281 L 88.480469 228.832031 L 85.941406 164.886719 L 147.539062 147.539062 L 164.886719 85.941406 L 228.832031 88.480469 L 264.363281 35.257812 L 324.390625 57.429688 L 374.632812 17.792969 " clip-rule="nonzero"/></clipPath></defs><g clip-path="url(#43b57d137d)"><g clip-path="url(#4685d9076d)"><path fill="#ffa600" d="M 17.792969 17.792969 L 731.472656 17.792969 L 731.472656 731.472656 L 17.792969 731.472656 Z M 17.792969 17.792969 " fill-opacity="1" fill-rule="nonzero"/></g></g><g fill="#000000" fill-opacity="1"><g transform="translate(157.20127, 514.131631)"><g><path d="M 215.59375 47.203125 L 184.40625 0.40625 C 175.601562 2 166.664062 2.796875 157.59375 2.796875 C 131.195312 2.796875 106.929688 -3.398438 84.796875 -15.796875 C 62.660156 -28.203125 45.125 -45.40625 32.1875 -67.40625 C 19.257812 -89.40625 12.796875 -114.269531 12.796875 -142 C 12.796875 -169.726562 19.257812 -194.59375 32.1875 -216.59375 C 45.125 -238.59375 62.660156 -255.726562 84.796875 -268 C 106.929688 -280.269531 131.195312 -286.40625 157.59375 -286.40625 C 184.257812 -286.40625 208.59375 -280.269531 230.59375 -268 C 252.59375 -255.726562 269.992188 -238.59375 282.796875 -216.59375 C 295.597656 -194.59375 302 -169.726562 302 -142 C 302 -118.800781 297.332031 -97.398438 288 -77.796875 C 278.664062 -58.203125 265.863281 -41.867188 249.59375 -28.796875 L 309.203125 47.203125 Z M 92.796875 -142 C 92.796875 -119.863281 98.53125 -102.328125 110 -89.390625 C 121.46875 -76.460938 137.332031 -70 157.59375 -70 C 177.59375 -70 193.394531 -76.53125 205 -89.59375 C 216.601562 -102.664062 222.40625 -120.132812 222.40625 -142 C 222.40625 -164.394531 216.601562 -182.0625 205 -195 C 193.394531 -207.9375 177.59375 -214.40625 157.59375 -214.40625 C 137.332031 -214.40625 121.46875 -207.9375 110 -195 C 98.53125 -182.0625 92.796875 -164.394531 92.796875 -142 Z M 92.796875 -142 "/></g></g></g><g fill="#000000" fill-opacity="1"><g transform="translate(472.39876, 514.131631)"><g><path d="M 60.40625 3.203125 C 46.53125 3.203125 35.394531 -0.59375 27 -8.1875 C 18.601562 -15.789062 14.40625 -25.460938 14.40625 -37.203125 C 14.40625 -48.929688 18.601562 -58.660156 27 -66.390625 C 35.394531 -74.128906 46.53125 -78 60.40625 -78 C 74 -78 84.992188 -74.128906 93.390625 -66.390625 C 101.796875 -58.660156 106 -48.929688 106 -37.203125 C 106 -25.734375 101.796875 -16.128906 93.390625 -8.390625 C 84.992188 -0.660156 74 3.203125 60.40625 3.203125 Z M 60.40625 3.203125 "/></g></g></g></svg>